<?xml version="1.0" encoding="UTF-8"?>
<!-- Generator: Adobe Illustrator 19.1.0, SVG Export Plug-In . SVG Version: 6.00 Build 0)  -->
<svg xmlns="http://www.w3.org/2000/svg" 
    xmlns:xlink="http://www.w3.org/1999/xlink" 
    xmlns:dc="http://purl.org/dc/elements/1.1/" 
    xmlns:cc="http://creativecommons.org/ns#" 
    xmlns:rdf="http://www.w3.org/1999/02/22-rdf-syntax-ns#" version="1.1" id="DESIGNS" x="0px" y="0px" width="32px" height="32px" viewBox="0 0 32 32" style="enable-background:new 0 0 32 32;" xml:space="preserve">
    <title property="dc:title">to purr</title>
    <desc property="dc:description">An icon for "purr" from the Feather series on to [icon]. Downloaded from http://www.toicon.com/icons/feather_purr by 24.4.107.65 on 2019-06-08. Licensed CC-BY, see http://toicon.com/license/ for details.</desc>
    <path class="feather_een" d="M15,10c0,0.276-0.224,0.5-0.5,0.5S14,10.276,14,10c0-0.552-0.448-1-1-1s-1,0.448-1,1  c0,0.276-0.224,0.5-0.5,0.5S11,10.276,11,10c0-1.103,0.897-2,2-2S15,8.897,15,10z M16,11.625c-0.552,0-1,0.448-1,1  c0,0.552,0.448,1,1,1s1-0.448,1-1C17,12.073,16.552,11.625,16,11.625z M12.709,12.375l-2.076-0.692  C10.371,11.596,10.087,11.738,10,12l0,0c-0.087,0.262,0.054,0.545,0.316,0.632L11.419,13l-1.103,0.367  C10.054,13.455,9.913,13.738,10,14l0,0c0.087,0.262,0.37,0.404,0.633,0.316l2.076-0.692c0.268-0.089,0.45-0.341,0.45-0.624v-0.001  C13.158,12.716,12.977,12.465,12.709,12.375z M28.189,3.004l-2.162,5.975C27.271,11.487,28,16.554,28,20c0,9.389-5.373,10-12,10h-4  c-0.022,0-0.049,0-0.078,0c-0.903,0-4.692-0.151-7.075-2.509C3.639,26.295,3,24.742,3,23c0-0.898,0.403-1.695,1.028-2.245  C4.019,20.503,4,20.267,4,20c0-3.365,0.699-8.365,1.89-10.84L3.802,2.897C3.578,2.224,4.098,1.579,4.746,1.579  c0.105,0,0.213,0.017,0.321,0.053l5.689,1.896C12.343,2.55,14.117,2,16,2c1.85,0,3.594,0.531,5.159,1.477l5.798-1.77  c0.101-0.031,0.201-0.045,0.298-0.045C27.914,1.662,28.434,2.328,28.189,3.004z M27.249,2.664l-6.225,1.901l-0.382-0.231  C19.179,3.448,17.617,3,16,3c-1.648,0-3.235,0.464-4.718,1.38l-0.398,0.246L4.757,2.583l2.21,6.646L6.791,9.594  C5.685,11.893,5,16.786,5,20c0,0.064,0.005,0.121,0.006,0.182C5.319,20.071,5.65,20,6,20c1.657,0,3,1.343,3,3  c0,0.16,0.02,0.179,0.067,0.226c0.351,0.347,1.192,0.576,1.933,0.689V20.5c0-0.276,0.224-0.5,0.5-0.5s0.5,0.224,0.5,0.5V24h2v-3.5  c0-0.276,0.224-0.5,0.5-0.5s0.5,0.224,0.5,0.5V24h2v-3.5c0-0.276,0.224-0.5,0.5-0.5s0.5,0.224,0.5,0.5V24h2v-3.5  c0-0.276,0.224-0.5,0.5-0.5s0.5,0.224,0.5,0.5V25h-9.031c-0.001,0-0.002,0-0.002,0c-0.563,0-2.711-0.181-3.603-1.063  C8.044,23.623,8,23.287,8,23c0-1.172-1.012-2.111-2.208-1.989c-1.075,0.109-1.822,1.092-1.789,2.172  c0.043,1.395,0.575,2.635,1.547,3.598C7.685,28.893,11.233,29,11.922,29L12,29h4c6.645,0,11-0.626,11-9  c0-3.275-0.714-8.249-1.869-10.577l-0.19-0.383L27.249,2.664z M11.937,24c0.011,0,0.021,0,0.032,0h-0.045  C11.928,24,11.933,24,11.937,24z M20,10c0,0.276,0.224,0.5,0.5,0.5S21,10.276,21,10c0-1.103-0.897-2-2-2s-2,0.897-2,2  c0,0.276,0.224,0.5,0.5,0.5S18,10.276,18,10c0-0.552,0.448-1,1-1S20,9.448,20,10z M18.842,12.999v0.001  c0,0.283,0.181,0.534,0.45,0.624l2.076,0.692C21.629,14.404,21.913,14.262,22,14l0,0c0.087-0.262-0.054-0.545-0.316-0.633L20.581,13  l1.103-0.367C21.946,12.545,22.087,12.262,22,12l0,0c-0.087-0.262-0.37-0.404-0.633-0.316l-2.076,0.692  C19.023,12.465,18.842,12.716,18.842,12.999z" style="fill: #ffffff;"/>
    <metadata>
        <work rdf:about="">
            <format>image/svg+xml</format>
            <type rdf:resource="http://purl.org/dc/dcmitype/StillImage"/>
            <license rdf:resource="http://creativecommons.org/licenses/by/4.0/"/>
            <attributionname>Shannon E Thomas</attributionname>
            <attributionurl>http://www.toicon.com/icons/feather_purr</attributionurl>
        </work>
    </metadata>
</svg>
